<?xml version="1.0" encoding="utf-8"?>

<svg xmlns="http://www.w3.org/2000/svg" xmlns:xlink="http://www.w3.org/1999/xlink" 
  height="512" width="512" viewBox="0 0 512 512">

  
  <!-- 橢圓-眼睛部分 -->未填色
  <ellipse fill="none" stroke="black" stroke-width="5" cx="266" cy="181" rx="187" ry="174"/>
  <ellipse fill="none" stroke="black" stroke-width="5" cx="229" cy="59" rx="38" ry="43"/>
  <ellipse fill="none" stroke="black" stroke-width="5" cx="304" cy="59" rx="38" ry="43"/>
  <ellipse fill="none" stroke="black" stroke-width="2" cx="285" cy="63" rx="11" ry="16"/>
  <ellipse fill="none" stroke="black" stroke-width="2" cx="247" cy="63" rx="11" ry="16"/>
  <ellipse fill="none" stroke="black" stroke-width="2" cx="249" cy="62" rx="5" ry="8"/>
  <ellipse fill="none" stroke="black" stroke-width="2" cx="283" cy="62" rx="5" ry="8"/>

  <!-- 橢圓-眼睛部分 --> 以填色
  <ellipse fill="#00A0E9" stroke="black" stroke-width="5" cx="266" cy="181" rx="187" ry="174"/>
  <ellipse fill="white" stroke="black" stroke-width="5" cx="229" cy="59" rx="38" ry="43"/>
  <ellipse fill="white" stroke="black" stroke-width="5" cx="304" cy="59" rx="38" ry="43"/>
  <ellipse fill="black" stroke="black" stroke-width="2" cx="285" cy="63" rx="11" ry="16"/>
  <ellipse fill="black" stroke="black" stroke-width="2" cx="247" cy="63" rx="11" ry="16"/>
  <ellipse fill="white" stroke="black" stroke-width="2" cx="249" cy="62" rx="5" ry="8"/>
  <ellipse fill="white" stroke="black" stroke-width="2" cx="283" cy="62" rx="5" ry="8"/>

<!--鼻子部分 -->
  <circle cx="264" cy="113" r="25" stroke="black" stroke-width="4" fill="red"/>
  <circle cx="261" cy="105" r="9" stroke="black" stroke-width="0" fill="white"/>

<!--嘴巴部分 -->
  <path d="M 127 213 q 136 227 274 0" stroke="black" stroke-width="5" fill="none" />


</svg>


    
